<?xml version="1.0" encoding="UTF-8" standalone="no"?>
<svg
   xmlns:dc="http://purl.org/dc/elements/1.1/"
   xmlns:cc="http://creativecommons.org/ns#"
   xmlns:rdf="http://www.w3.org/1999/02/22-rdf-syntax-ns#"
   xmlns:svg="http://www.w3.org/2000/svg"
   xmlns="http://www.w3.org/2000/svg"
   width="1000"
   height="1000"
   id="svg2"
   version="1.1">
  <defs
     id="defs4" />
  <metadata
     id="metadata7">
    <rdf:RDF>
      <cc:Work
         rdf:about="">
        <dc:format>image/svg+xml</dc:format>
        <dc:type
           rdf:resource="http://purl.org/dc/dcmitype/StillImage" />
        <dc:title></dc:title>
      </cc:Work>
    </rdf:RDF>
  </metadata>
  <g
     id="layer1"
     transform="translate(-389.5,118.13782)">
    <rect
       style="fill:#ffd22f;fill-opacity:1;fill-rule:evenodd;stroke:none"
       id="rect3082"
       width="999"
       height="999"
       x="390"
       y="-117.63782" />
    <g
       id="g5338"
       transform="matrix(1.343797,0,0,1.343797,646.36325,-1051.5921)" />
    <g
       id="g1514"
       transform="matrix(0.97154156,0,0,0.95613285,32.060452,36.669772)">
      <g
         transform="matrix(1.0275796,0,0,1.0380225,545.75207,177.99888)"
         id="g1468">
        <g
           id="g72556">
          <path
             id="path63096"
             d="m 46.166328,354.11247 c -7.777481,0 -15.45525,-0.88707 -23.13302,-2.56261 C 15.554962,349.8743 8.2760371,347.21312 1.2962468,343.56633 V 316.6589 c 14.0592912,8.47633 29.0159852,12.7145 44.8700812,12.7145 8.974016,0 15.754384,-1.47843 20.341102,-4.53385 4.786143,-2.95686 7.079502,-7.19503 7.079502,-12.51738 0,-4.04104 -1.196535,-7.19503 -3.589606,-9.36339 -2.193649,-2.36548 -5.284699,-4.1396 -9.073727,-5.42091 -3.789029,-1.47843 -8.076615,-2.75974 -12.862757,-3.94248 -7.777481,-1.77412 -14.65756,-3.94248 -20.540525,-6.2094 -5.882967,-2.3655 -10.968242,-5.12523 -15.056406,-8.18065 C 8.3757484,275.95279 5.2846984,272.10887 3.1907613,267.67358 1.0968242,263.13973 0,257.71882 0,251.50942 0,242.63883 2.1936484,235.04956 6.6806564,228.64303 11.267376,222.23649 17.74861,217.40696 26.024647,213.95729 c 8.276036,-3.54824 18.147455,-5.32235 29.614253,-5.32235 7.478347,0 14.856982,0.88706 22.135906,2.56261 7.278925,1.67555 13.760159,3.94248 19.543414,6.80078 v 26.61175 c -5.783255,-3.54824 -12.364201,-6.20942 -19.742836,-8.18065 -7.278924,-1.97125 -14.557849,-2.95687 -21.936484,-2.95687 -8.076615,0 -14.258715,1.37987 -18.745723,4.13961 -4.387296,2.75974 -6.481233,6.60365 -6.481233,11.72888 0,3.64679 1.096824,6.60365 3.190761,8.77202 2.093937,2.0698 5.085276,3.84392 8.874305,5.32235 3.988452,1.28131 8.57517,2.56261 13.859869,3.94248 6.680656,1.67555 12.962468,3.54823 18.745723,5.61803 5.783255,1.97124 10.86853,4.53385 15.255827,7.58928 4.487008,3.15398 7.877192,7.09646 10.270261,11.926 2.49278,4.82954 3.78903,10.74326 3.78903,17.74116 0,9.26483 -2.29336,17.14979 -6.880078,23.85201 -4.58672,6.50509 -11.267376,11.53175 -19.942258,15.07998 -8.674882,3.25255 -19.144568,4.92811 -31.409056,4.92811 z" />
          <path
             id="path63098"
             d="M 124.57864,351.1556 V 211.49323 h 50.44091 c 18.03585,0 31.90958,3.94248 41.62118,11.92601 9.71162,7.98353 14.56742,19.31815 14.56742,34.20102 0,9.75764 -2.18016,18.1354 -6.63957,25.03475 -4.36032,6.80078 -10.70259,12.02456 -19.02683,15.67136 -8.42332,3.54823 -18.63043,5.32235 -30.62129,5.32235 h -20.4142 v 47.70401 h -29.92762 z m 29.92762,-71.26033 h 18.82862 c 8.91884,0 15.6575,-1.77411 20.21601,-5.32235 4.75671,-3.64679 7.03596,-9.26483 7.03596,-16.95266 0,-7.68784 -2.37835,-13.30587 -7.03596,-16.95266 -4.55851,-3.64681 -11.29717,-5.42092 -20.01781,-5.42092 h -19.02682 z" />
          <path
             d="m 316.35363,208.53638 c 10.6079,0 20.12526,1.67555 28.65122,5.12522 8.62512,3.35111 15.96141,8.27921 22.0089,14.68574 6.14664,6.20941 10.90532,13.89724 14.17691,22.86639 3.2716,8.87058 4.95696,18.92391 4.95696,30.06141 0,11.03894 -1.68536,21.09227 -4.95696,30.06142 -3.27159,8.96914 -8.03027,16.65697 -14.17691,23.06351 -6.04749,6.40653 -13.38378,11.23606 -22.0089,14.68574 -8.52596,3.3511 -18.04332,5.12522 -28.65122,5.12522 -10.60789,0 -20.22439,-1.67556 -28.8495,-5.12522 -8.52597,-3.35112 -15.86227,-8.27921 -22.0089,-14.68574 -6.04749,-6.40654 -10.70703,-14.09437 -13.97862,-23.06351 -3.2716,-8.96915 -4.95696,-19.02248 -4.95696,-30.06142 0,-11.23607 1.68536,-21.19083 4.95696,-30.06141 3.27159,-8.96915 7.93113,-16.55842 13.97862,-22.86639 6.14663,-6.40653 13.48293,-11.23607 22.0089,-14.68574 8.52597,-3.44967 18.24161,-5.12522 28.8495,-5.12522 z m 0,119.35859 c 8.03028,0 14.87088,-1.77411 20.62095,-5.42091 5.75008,-3.74536 10.1122,-9.06771 13.18552,-16.06561 2.97417,-6.89933 4.5604,-15.27711 4.5604,-25.23188 0,-9.85619 -1.48709,-18.33253 -4.5604,-25.23187 -2.97418,-6.89934 -7.43544,-12.22169 -13.18552,-15.86848 -5.75007,-3.64679 -12.59067,-5.42091 -20.62095,-5.42091 -8.03027,0 -14.87088,1.77412 -20.62094,5.42091 -5.75008,3.64679 -10.1122,8.96914 -13.18552,15.86848 -2.97417,6.89934 -4.5604,15.27712 -4.5604,25.23187 0,9.95477 1.48709,18.33255 4.5604,25.23188 2.97417,6.89934 7.43544,12.22169 13.18552,16.06561 5.75006,3.6468 12.59067,5.42091 20.62094,5.42091 z"
             id="path63100" />
          <path
             id="path63102"
             d="M 437.48032,300.39617 V 351.1556 H 407.6846 V 211.49323 h 51.17737 c 18.41197,0 32.56741,3.84393 42.36734,11.53176 9.89891,7.68784 14.94735,18.72679 14.94735,33.01827 0,9.26483 -2.17776,17.14979 -6.63227,23.65488 -4.35552,6.5051 -10.49285,11.53176 -18.60995,15.07999 5.84036,9.26483 11.68071,18.52966 17.42208,27.89305 5.74137,9.26483 11.48274,18.72678 17.22411,28.48442 h -34.74518 c -9.40397,-17.14978 -19.20389,-34.10245 -29.20179,-50.75943 -1.08888,0 -1.97978,0 -2.96967,0 z m 0,-23.65488 h 19.59984 c 9.30498,0 16.33321,-1.67556 21.18367,-4.92811 4.85047,-3.3511 7.22621,-8.67345 7.22621,-15.86848 0,-7.19502 -2.37574,-12.41881 -7.22621,-15.86848 -4.75148,-3.3511 -11.68071,-5.12522 -20.98569,-5.12522 h -19.79782 z" />
          <path
             id="path63104"
             d="m 529.05864,211.49323 h 119.87189 v 26.2175 H 604.26648 V 351.1556 H 573.72269 V 237.71073 h -44.66405 z" />
        </g>
        <path
           d="M 603.21927,0 V 158.58939 H 444.62989 V 0 Z M 404.58246,0 V 158.58939 H 245.99307 V 0 Z M 206.24547,0 V 158.58939 H 47.656073 V 0 Z m 324.96101,33.739891 c -7.13652,0 -13.57921,1.057263 -19.32808,3.178396 -5.52344,1.979403 -10.56555,5.105108 -14.79506,9.171754 -4.15248,4.050655 -7.37643,8.954219 -9.44929,14.372163 -2.1806,5.583668 -3.2709,11.841341 -3.2709,18.76641 0,7.096875 1.05726,13.480098 3.15196,19.143061 2.0947,5.669575 5.12112,10.453685 9.06603,14.372165 3.94491,3.91187 8.76866,6.90524 14.47788,8.98673 5.70922,2.07488 12.1321,3.11892 19.26862,3.11892 5.36559,0 10.49333,-0.59471 15.35674,-1.77752 4.47704,-1.03063 8.79691,-2.65281 12.84574,-4.82376 v -17.0021 c -7.66714,4.77128 -16.529,7.27313 -25.55933,7.21581 -6.04623,0 -11.18715,-1.14316 -15.42281,-3.42288 -4.19337,-2.23194 -7.58478,-5.718065 -9.70038,-9.971311 -2.22026,-4.361208 -3.337,-9.634305 -3.337,-15.832507 0,-6.198201 1.15639,-11.458084 3.46254,-15.779644 2.22805,-4.240335 5.70082,-7.696958 9.95149,-9.905228 4.32156,-2.279723 9.5484,-3.422888 15.6739,-3.422888 4.44713,0 8.68939,0.59471 12.7202,1.770915 4.03082,1.189421 7.76426,2.920688 11.20698,5.200411 v -17.36554 c -3.88937,-1.995473 -8.0142,-3.494001 -12.27745,-4.460326 -4.60724,-1.042259 -9.31817,-1.556581 -14.04178,-1.533031 z M 324.8724,34.791525 h -33.47559 v 89.206525 h 35.54386 c 7.03078,0 13.05716,-1.03743 18.07256,-3.11892 5.0088,-2.08149 8.87442,-5.03521 11.58362,-8.85457 2.70925,-3.83258 4.06387,-8.40524 4.06387,-13.731201 0,-5.405255 -1.39427,-9.99774 -4.18941,-13.78406 -2.7885,-3.786323 -6.80611,-6.548422 -12.06599,-8.299513 3.79953,-1.823777 6.67395,-4.295129 8.61009,-7.420661 1.94271,-3.118926 2.90745,-6.79952 2.90745,-11.035178 0,-7.407446 -2.70923,-13.083624 -8.1277,-17.035144 -5.41848,-3.95152 -13.05719,-5.927278 -22.92276,-5.927278 z M 126.13537,34.691428 H 92.659804 v 89.206532 h 35.543836 c 7.03081,0 13.0572,-1.03744 18.07259,-3.11893 5.00878,-2.08148 8.87439,-5.03521 11.58363,-8.85457 2.70923,-3.83258 4.06387,-8.40524 4.06387,-13.731198 0,-5.405255 -1.39428,-9.99774 -4.18941,-13.78406 -2.78854,-3.786323 -6.80614,-6.548422 -12.06602,-8.299513 3.79954,-1.823777 6.67398,-4.295129 8.61008,-7.420661 1.94272,-3.118926 2.90749,-6.79952 2.90749,-11.035178 0,-7.407446 -2.70925,-13.083624 -8.12772,-17.035144 -5.41846,-3.95152 -13.05719,-5.927278 -22.92278,-5.927278 z m 199.34494,50.756191 c 11.08144,0 16.61884,4.077069 16.61884,12.224598 0,3.832583 -1.45374,6.759873 -4.3612,8.795103 -2.91407,2.04184 -7.08366,3.05945 -12.49554,3.05945 H 309.4694 V 85.447619 Z m -198.737,-0.100097 c 11.08144,0 16.61884,4.077069 16.61884,12.224598 0,3.83258 -1.45374,6.75987 -4.3612,8.7951 -2.91409,2.04184 -7.08366,3.05946 -12.49553,3.05946 H 110.73237 V 85.347522 Z M 323.18076,49.262808 c 9.6277,0 14.43824,3.53522 14.43824,10.605665 0,3.660771 -1.23567,6.508772 -3.7004,8.544002 -2.46474,2.041839 -6.04622,3.059454 -10.73784,3.059454 H 309.47599 V 49.269415 h 13.70477 z m -198.737,-0.100097 c 9.62768,0 14.43825,3.53522 14.43825,10.605665 0,3.660771 -1.23568,6.508772 -3.70043,8.544002 -2.46475,2.041839 -6.04622,3.059454 -10.73782,3.059454 H 110.73237 V 49.169318 h 13.70477 z"
           id="path1019" />
      </g>
    </g>
  </g>
</svg>
